<svg xmlns="http://www.w3.org/2000/svg" viewBox="0 0 48 48">
    <path fill="#2563EB" d="M24 4c-5.52 0-10 4.48-10 10v3.55c-1.19.69-2 1.97-2 3.45 0 2.21 1.79 4 4 4 .74 0 1.43-.21 2-.57V30c0 3.31 2.69 6 6 6s6-2.69 6-6v-5.57c.57.36 1.26.57 2 .57 2.21 0 4-1.79 4-4 0-1.48-.81-2.75-2-3.45V14c0-5.52-4.48-10-10-10zm0 4c3.31 0 6 2.69 6 6v3h-2v-3c0-2.21-1.79-4-4-4s-4 1.79-4 4v3h-2v-3c0-3.31 2.69-6 6-6zm-6 12c1.1 0 2 .9 2 2s-.9 2-2 2-2-.9-2-2 .9-2 2-2zm12 0c1.1 0 2 .9 2 2s-.9 2-2 2-2-.9-2-2 .9-2 2-2zm-6 2c1.66 0 3 1.34 3 3v5c0 1.66-1.34 3-3 3s-3-1.34-3-3v-5c0-1.66 1.34-3 3-3z"/>
    <path fill="#1D4ED8" d="M24 8c-3.31 0-6 2.69-6 6v3h2v-3c0-2.21 1.79-4 4-4s4 1.79 4 4v3h2v-3c0-3.31-2.69-6-6-6zm0 14c-1.66 0-3 1.34-3 3v5c0 1.66 1.34 3 3 3s3-1.34 3-3v-5c0-1.66-1.34-3-3-3z"/>
</svg>
