<svg viewBox="0 0 24 24" fill="none" xmlns="http://www.w3.org/2000/svg">
  <circle cx="12" cy="13" r="3" stroke="#1C274C" stroke-width="1.5"/>
  <path d="M2 13.36c0-3.06 0-4.59.75-5.69.32-.48.74-.89 1.23-1.2.72-.47 1.62-.64 3-.71.66 0 1.23-.49 1.35-1.13C8.53 3.68 9.38 3 10.37 3h3.27c.99 0 1.84.68 2.03 1.63.13.64.7 1.13 1.36 1.13 1.38.07 2.28.24 3 .71.49.31.91.72 1.23 1.2.75 1.1.75 2.63.75 5.69s0 4.6-.75 5.7c-.32.48-.74.89-1.23 1.2-1.12.73-2.68.73-5.8.73H9.78c-3.12 0-4.68 0-5.8-.73a3.86 3.86 0 0 1-1.23-1.2 4 4 0 0 1-.47-1.06" stroke="#1C274C" stroke-width="1.5" stroke-linecap="round"/>
  <path d="M19 10h-1" stroke="#1C274C" stroke-width="1.5" stroke-linecap="round"/>
</svg>